<svg xmlns="http://www.w3.org/2000/svg" xmlns:xlink="http://www.w3.org/1999/xlink" version="1.1" width="512px" height="512px" style="transform:scale(.88); shape-rendering:geometricPrecision; text-rendering:geometricPrecision; image-rendering:optimizeQuality; fill-rule:evenodd; clip-rule:evenodd">
    <g><path fill="#122335" d="M 94.5,64.5 C 99.8088,63.5655 103.309,65.5655 105,70.5C 105.667,75.5 105.667,80.5 105,85.5C 100.42,93.0673 95.4201,93.4006 90,86.5C 89.3333,80.5 89.3333,74.5 90,68.5C 91.3968,66.9297 92.8968,65.5964 94.5,64.5 Z"/></g>
    <g><path fill="#122335" d="M 410.5,64.5 C 414.803,63.7962 418.303,65.1295 421,68.5C 421.667,74.5 421.667,80.5 421,86.5C 415.58,93.4006 410.58,93.0673 406,85.5C 405.333,80.5 405.333,75.5 406,70.5C 406.599,67.7458 408.099,65.7458 410.5,64.5 Z"/></g>
    <g><path fill="#122335" d="M 68.5,89.5 C 75.2837,89.0796 81.9504,89.5796 88.5,91C 93.0396,96.8424 92.0396,101.509 85.5,105C 79.4149,105.861 73.4149,105.527 67.5,104C 63.3778,98.8879 63.7112,94.0546 68.5,89.5 Z"/></g>
    <g><path fill="#112335" d="M 107.5,89.5 C 114.284,89.0796 120.95,89.5796 127.5,91C 129.429,94.2559 129.929,97.7559 129,101.5C 127.786,103.049 126.286,104.215 124.5,105C 118.415,105.861 112.415,105.527 106.5,104C 102.285,98.7195 102.618,93.8862 107.5,89.5 Z"/></g>
    <g><path fill="#112335" d="M 385.5,89.5 C 392.284,89.0796 398.95,89.5796 405.5,91C 407.934,94.716 408.101,98.5493 406,102.5C 404.829,103.893 403.329,104.727 401.5,105C 395.719,105.903 390.053,105.57 384.5,104C 381.606,101.091 380.773,97.5913 382,93.5C 382.69,91.6498 383.856,90.3164 385.5,89.5 Z"/></g>
    <g><path fill="#122335" d="M 424.5,89.5 C 430.509,89.3338 436.509,89.5005 442.5,90C 448.33,96.0065 447.663,101.006 440.5,105C 434.32,106.022 428.32,105.522 422.5,103.5C 418.354,98.0958 419.021,93.4291 424.5,89.5 Z"/></g>
    <g><path fill="#142537" d="M 244.5,93.5 C 317.113,92.3721 370.28,123.705 404,187.5C 427.304,242.144 423.804,294.978 393.5,346C 422.347,374.68 451.014,403.514 479.5,432.5C 463.167,449.5 446.5,466.167 429.5,482.5C 400.5,453.833 371.5,425.167 342.5,396.5C 293.659,424.52 242.993,428.353 190.5,408C 137.377,383.276 105.211,342.109 94,284.5C 85.089,205.147 115.589,146.647 185.5,109C 204.428,100.52 224.094,95.3529 244.5,93.5 Z"/></g>
    <g><path fill="#112335" d="M 93.5,103.5 C 98.635,102.426 102.468,104.093 105,108.5C 105.667,113.833 105.667,119.167 105,124.5C 102.565,129.224 98.7314,130.724 93.5,129C 91.6667,128.5 90.5,127.333 90,125.5C 89.3333,119.5 89.3333,113.5 90,107.5C 90.6897,105.65 91.8564,104.316 93.5,103.5 Z"/></g>
    <g><path fill="#112335" d="M 410.5,103.5 C 412.857,103.337 415.19,103.503 417.5,104C 419.333,104.5 420.5,105.667 421,107.5C 421.667,113.5 421.667,119.5 421,125.5C 420.5,127.333 419.333,128.5 417.5,129C 412.269,130.724 408.435,129.224 406,124.5C 405.333,119.167 405.333,113.833 406,108.5C 407.025,106.313 408.525,104.646 410.5,103.5 Z"/></g>
    <g><path d="M 396.5,212.5 C 360.373,147.597 305.04,118.764 230.5,126C 177.919,136.443 139.253,165.277 114.5,212.5C 131.407,163.76 164.407,131.26 213.5,115C 264.949,102.055 311.283,112.055 352.5,145C 373.339,163.52 388.006,186.02 396.5,212.5 Z"/></g>
    <g><path fill="#fdcc35" d="M 396.5,212.5 C 409.574,255.392 404.574,296.058 381.5,334.5C 338.18,291.68 295.014,248.68 252,205.5C 235.5,222 219,238.5 202.5,255C 245.5,298 288.5,341 331.5,384C 288.514,408.836 243.847,412.169 197.5,394C 145.903,369.68 116.07,329.18 108,272.5C 105.803,251.965 107.97,231.965 114.5,212.5C 139.253,165.277 177.919,136.443 230.5,126C 305.04,118.764 360.373,147.597 396.5,212.5 Z"/></g>
    <g><path fill="#172636" d="M 250.5,149.5 C 252.857,149.337 255.19,149.503 257.5,150C 259.333,150.5 260.5,151.667 261,153.5C 261.667,162.5 261.667,171.5 261,180.5C 255.837,186.062 251.171,185.729 247,179.5C 246.333,171.167 246.333,162.833 247,154.5C 247.997,152.677 249.164,151.01 250.5,149.5 Z"/></g>
    <g><path fill="#182736" d="M 180.5,178.5 C 183.649,178.211 186.649,178.711 189.5,180C 194.667,185.167 199.833,190.333 205,195.5C 207.734,204.105 204.567,207.938 195.5,207C 189.667,201.167 183.833,195.333 178,189.5C 175.826,185.193 176.659,181.526 180.5,178.5 Z"/></g>
    <g><path fill="#172636" d="M 320.5,178.5 C 328.494,177.329 331.994,180.663 331,188.5C 325.866,194.635 320.366,200.469 314.5,206C 305.894,208.732 302.061,205.566 303,196.5C 309.036,190.631 314.87,184.631 320.5,178.5 Z"/></g>
    <g><path fill="#112335" d="M 29.5,222.5 C 33.7943,222.198 36.961,223.864 39,227.5C 39.6667,233.5 39.6667,239.5 39,245.5C 35.4906,249.613 31.3239,250.446 26.5,248C 25.1068,246.829 24.2735,245.329 24,243.5C 23.3333,238.5 23.3333,233.5 24,228.5C 25.0209,225.65 26.8542,223.65 29.5,222.5 Z"/></g>
    <g><path fill="#112335" d="M 477.5,222.5 C 482.062,222.361 485.229,224.361 487,228.5C 487.861,234.585 487.527,240.585 486,246.5C 481.046,250.677 476.38,250.343 472,245.5C 471.333,239.5 471.333,233.5 472,227.5C 473.107,224.887 474.94,223.22 477.5,222.5 Z"/></g>
    <g><path fill="#fdfdfd" d="M 283.5,271.5 C 271.563,259.062 259.396,246.728 247,234.5C 246.536,233.906 246.369,233.239 246.5,232.5C 247.879,229.927 249.879,228.427 252.5,228C 264.667,240.167 276.833,252.333 289,264.5C 288.228,267.464 286.395,269.798 283.5,271.5 Z"/></g>
    <g><path fill="#50a3d9" d="M 246.5,232.5 C 246.369,233.239 246.536,233.906 247,234.5C 259.396,246.728 271.563,259.062 283.5,271.5C 276.536,278.965 269.369,286.298 262,293.5C 249.667,281.167 237.333,268.833 225,256.5C 224.333,255.5 224.333,254.5 225,253.5C 232.035,246.297 239.202,239.297 246.5,232.5 Z"/></g>
    <g><path fill="#122335" d="M -0.5,259.5 C -0.5,256.833 -0.5,254.167 -0.5,251.5C 0.639972,250.199 1.97331,249.032 3.5,248C 9.16667,247.333 14.8333,247.333 20.5,248C 25.2238,250.435 26.7238,254.269 25,259.5C 23.786,261.049 22.286,262.215 20.5,263C 14.8333,263.667 9.16667,263.667 3.5,263C 2.29493,261.624 0.961599,260.458 -0.5,259.5 Z"/></g>
    <g><path fill="#122336" d="M 42.5,247.5 C 48.9522,247.084 55.2855,247.584 61.5,249C 65.9258,254.441 65.2591,259.108 59.5,263C 53.0559,263.915 46.7226,263.581 40.5,262C 36.2705,256.434 36.9372,251.601 42.5,247.5 Z"/></g>
    <g><path fill="#122436" d="M 451.5,247.5 C 457.952,247.084 464.285,247.584 470.5,249C 474.809,254.42 474.142,259.086 468.5,263C 462.056,263.915 455.723,263.581 449.5,262C 445.128,256.408 445.794,251.575 451.5,247.5 Z"/></g>
    <g><path fill="#122335" d="M 511.5,251.5 C 511.5,254.167 511.5,256.833 511.5,259.5C 510.038,260.458 508.705,261.624 507.5,263C 501.833,263.667 496.167,263.667 490.5,263C 485.776,260.565 484.276,256.731 486,251.5C 487.214,249.951 488.714,248.785 490.5,248C 496.167,247.333 501.833,247.333 507.5,248C 508.705,249.376 510.038,250.542 511.5,251.5 Z"/></g>
    <g><path fill="#1a2736" d="M 153.5,247.5 C 161.507,247.334 169.507,247.5 177.5,248C 184.648,251.742 185.315,256.408 179.5,262C 170.167,262.667 160.833,262.667 151.5,262C 147.054,256.397 147.721,251.564 153.5,247.5 Z"/></g>
    <g><path fill="#1a2736" d="M 330.5,247.5 C 338.507,247.334 346.507,247.5 354.5,248C 361.626,251.643 362.293,256.309 356.5,262C 347.5,262.667 338.5,262.667 329.5,262C 325.788,259.487 324.622,255.987 326,251.5C 327.397,249.93 328.897,248.596 330.5,247.5 Z"/></g>
    <g><path fill="#122335" d="M 28.5,261.5 C 32.8027,260.796 36.3027,262.13 39,265.5C 39.6667,271.5 39.6667,277.5 39,283.5C 33.5799,290.401 28.5799,290.067 24,282.5C 23.3333,277.5 23.3333,272.5 24,267.5C 24.5985,264.746 26.0985,262.746 28.5,261.5 Z"/></g>
    <g><path fill="#112335" d="M 476.5,261.5 C 481.809,260.565 485.309,262.565 487,267.5C 487.667,272.5 487.667,277.5 487,282.5C 482.42,290.067 477.42,290.401 472,283.5C 471.333,277.5 471.333,271.5 472,265.5C 473.397,263.93 474.897,262.596 476.5,261.5 Z"/></g>
    <g><path fill="#fafcfd" d="M 451.5,438.5 C 450.761,438.631 450.094,438.464 449.5,438C 397.578,386.245 345.911,334.411 294.5,282.5C 296.202,279.605 298.536,277.772 301.5,277C 353.5,329 405.5,381 457.5,433C 455.63,435.04 453.63,436.873 451.5,438.5 Z"/></g>
    <g><path fill="#4ea3da" d="M 294.5,282.5 C 345.911,334.411 397.578,386.245 449.5,438C 450.094,438.464 450.761,438.631 451.5,438.5C 444.703,445.798 437.703,452.965 430.5,460C 429.833,460.667 429.167,460.667 428.5,460C 376.5,408 324.5,356 272.5,304C 279.702,296.631 287.035,289.464 294.5,282.5 Z"/></g>
    <g><path fill="#182736" d="M 195.5,303.5 C 203.164,302.666 206.664,306 206,313.5C 200.866,319.635 195.366,325.469 189.5,331C 183.007,334.084 178.674,332.25 176.5,325.5C 176.719,324.062 177.219,322.729 178,321.5C 184.036,315.631 189.87,309.631 195.5,303.5 Z"/></g>
    <g><path fill="#172636" d="M 250.5,326.5 C 254.909,325.618 258.409,326.952 261,330.5C 261.667,339.5 261.667,348.5 261,357.5C 255.833,363.092 251.167,362.759 247,356.5C 246.333,348.167 246.333,339.833 247,331.5C 247.997,329.677 249.164,328.01 250.5,326.5 Z"/></g>
    <g><path fill="#112335" d="M 93.5,381.5 C 98.7419,380.271 102.575,381.937 105,386.5C 105.667,391.833 105.667,397.167 105,402.5C 102.459,407.069 98.6253,408.569 93.5,407C 91.6667,406.5 90.5,405.333 90,403.5C 89.3333,397.5 89.3333,391.5 90,385.5C 90.6897,383.65 91.8564,382.316 93.5,381.5 Z"/></g>
    <g><path fill="#122335" d="M 70.5,405.5 C 75.5111,405.334 80.5111,405.501 85.5,406C 93.0673,410.58 93.4006,415.58 86.5,421C 80.5,421.667 74.5,421.667 68.5,421C 62.7312,414.8 63.3979,409.633 70.5,405.5 Z"/></g>
    <g><path fill="#112335" d="M 108.5,405.5 C 114.621,405.09 120.621,405.59 126.5,407C 129.902,410.719 130.402,414.886 128,419.5C 127.25,420.126 126.416,420.626 125.5,421C 118.724,421.92 112.057,421.586 105.5,420C 102.209,414.169 103.209,409.336 108.5,405.5 Z"/></g>
    <g><path fill="#122335" d="M 95.5,419.5 C 100.062,419.361 103.229,421.361 105,425.5C 105.667,430.5 105.667,435.5 105,440.5C 101.006,447.663 96.0065,448.33 90,442.5C 89.3333,436.5 89.3333,430.5 90,424.5C 91.1065,421.887 92.9399,420.22 95.5,419.5 Z"/></g>
</svg>
