<svg xmlns="http://www.w3.org/2000/svg" xmlns:xlink="http://www.w3.org/1999/xlink" version="1.1" width="512px" height="512px" style="transform:scale(.88); shape-rendering:geometricPrecision; text-rendering:geometricPrecision; image-rendering:optimizeQuality; fill-rule:evenodd; clip-rule:evenodd">
    <g><path fill="#142537" d="M 244.5,93.5 C 317.113,92.3721 370.28,123.705 404,187.5C 427.304,242.144 423.804,294.978 393.5,346C 422.347,374.68 451.014,403.514 479.5,432.5C 463.167,449.5 446.5,466.167 429.5,482.5C 400.5,453.833 371.5,425.167 342.5,396.5C 293.659,424.52 242.993,428.353 190.5,408C 137.377,383.276 105.211,342.109 94,284.5C 85.089,205.147 115.589,146.647 185.5,109C 204.428,100.52 224.094,95.3529 244.5,93.5 Z"/></g>
    <g><path d="M 396.5,212.5 C 360.373,147.597 305.04,118.764 230.5,126C 177.919,136.443 139.253,165.277 114.5,212.5C 131.407,163.76 164.407,131.26 213.5,115C 264.949,102.055 311.283,112.055 352.5,145C 373.339,163.52 388.006,186.02 396.5,212.5 Z"/></g>
    <g><path fill="#fdcc35" d="M 396.5,212.5 C 409.574,255.392 404.574,296.058 381.5,334.5C 338.18,291.68 295.014,248.68 252,205.5C 235.5,222 219,238.5 202.5,255C 245.5,298 288.5,341 331.5,384C 288.514,408.836 243.847,412.169 197.5,394C 145.903,369.68 116.07,329.18 108,272.5C 105.803,251.965 107.97,231.965 114.5,212.5C 139.253,165.277 177.919,136.443 230.5,126C 305.04,118.764 360.373,147.597 396.5,212.5 Z"/></g>
    <g><path fill="#172636" d="M 250.5,149.5 C 252.857,149.337 255.19,149.503 257.5,150C 259.333,150.5 260.5,151.667 261,153.5C 261.667,162.5 261.667,171.5 261,180.5C 255.837,186.062 251.171,185.729 247,179.5C 246.333,171.167 246.333,162.833 247,154.5C 247.997,152.677 249.164,151.01 250.5,149.5 Z"/></g>
    <g><path fill="#182736" d="M 180.5,178.5 C 183.649,178.211 186.649,178.711 189.5,180C 194.667,185.167 199.833,190.333 205,195.5C 207.734,204.105 204.567,207.938 195.5,207C 189.667,201.167 183.833,195.333 178,189.5C 175.826,185.193 176.659,181.526 180.5,178.5 Z"/></g>
    <g><path fill="#172636" d="M 320.5,178.5 C 328.494,177.329 331.994,180.663 331,188.5C 325.866,194.635 320.366,200.469 314.5,206C 305.894,208.732 302.061,205.566 303,196.5C 309.036,190.631 314.87,184.631 320.5,178.5 Z"/></g>
    <g><path fill="#fdfdfd" d="M 283.5,271.5 C 271.563,259.062 259.396,246.728 247,234.5C 246.536,233.906 246.369,233.239 246.5,232.5C 247.879,229.927 249.879,228.427 252.5,228C 264.667,240.167 276.833,252.333 289,264.5C 288.228,267.464 286.395,269.798 283.5,271.5 Z"/></g>
    <g><path fill="#50a3d9" d="M 246.5,232.5 C 246.369,233.239 246.536,233.906 247,234.5C 259.396,246.728 271.563,259.062 283.5,271.5C 276.536,278.965 269.369,286.298 262,293.5C 249.667,281.167 237.333,268.833 225,256.5C 224.333,255.5 224.333,254.5 225,253.5C 232.035,246.297 239.202,239.297 246.5,232.5 Z"/></g>
    <g><path fill="#1a2736" d="M 153.5,247.5 C 161.507,247.334 169.507,247.5 177.5,248C 184.648,251.742 185.315,256.408 179.5,262C 170.167,262.667 160.833,262.667 151.5,262C 147.054,256.397 147.721,251.564 153.5,247.5 Z"/></g>
    <g><path fill="#1a2736" d="M 330.5,247.5 C 338.507,247.334 346.507,247.5 354.5,248C 361.626,251.643 362.293,256.309 356.5,262C 347.5,262.667 338.5,262.667 329.5,262C 325.788,259.487 324.622,255.987 326,251.5C 327.397,249.93 328.897,248.596 330.5,247.5 Z"/></g>
    <g><path fill="#fafcfd" d="M 451.5,438.5 C 450.761,438.631 450.094,438.464 449.5,438C 397.578,386.245 345.911,334.411 294.5,282.5C 296.202,279.605 298.536,277.772 301.5,277C 353.5,329 405.5,381 457.5,433C 455.63,435.04 453.63,436.873 451.5,438.5 Z"/></g>
    <g><path fill="#4ea3da" d="M 294.5,282.5 C 345.911,334.411 397.578,386.245 449.5,438C 450.094,438.464 450.761,438.631 451.5,438.5C 444.703,445.798 437.703,452.965 430.5,460C 429.833,460.667 429.167,460.667 428.5,460C 376.5,408 324.5,356 272.5,304C 279.702,296.631 287.035,289.464 294.5,282.5 Z"/></g>
    <g><path fill="#182736" d="M 195.5,303.5 C 203.164,302.666 206.664,306 206,313.5C 200.866,319.635 195.366,325.469 189.5,331C 183.007,334.084 178.674,332.25 176.5,325.5C 176.719,324.062 177.219,322.729 178,321.5C 184.036,315.631 189.87,309.631 195.5,303.5 Z"/></g>
    <g><path fill="#172636" d="M 250.5,326.5 C 254.909,325.618 258.409,326.952 261,330.5C 261.667,339.5 261.667,348.5 261,357.5C 255.833,363.092 251.167,362.759 247,356.5C 246.333,348.167 246.333,339.833 247,331.5C 247.997,329.677 249.164,328.01 250.5,326.5 Z"/></g>
</svg>
