<svg xmlns="http://www.w3.org/2000/svg" xmlns:xlink="http://www.w3.org/1999/xlink" version="1.1" id="Layer_1" x="0px" y="0px" width="100%" viewBox="0 0 512 512" enable-background="new 0 0 512 512" xml:space="preserve">
  <path fill="#004587" opacity="1.000000" stroke="none" d=" M224.705292,1.242168   C246.020889,1.000000 267.041779,1.000000 288.531342,1.000000   C293.225372,2.869003 297.791443,1.991834 302.177094,2.615135   C322.251404,5.468166 341.280518,11.780005 359.931732,19.516449   C395.849182,34.414909 425.855530,57.521862 451.557648,86.263908   C482.316559,120.660858 501.464508,161.011917 510.652924,206.133896   C511.874115,212.130844 511.607178,218.345245 512.757812,224.705353   C513.000000,246.020889 513.000000,267.041779 513.000000,288.531342   C511.130920,293.225372 512.008179,297.791443 511.384888,302.177094   C508.531830,322.251404 502.219971,341.280487 494.483582,359.931702   C479.585205,395.849213 456.478180,425.855499 427.736115,451.557526   C393.339203,482.316376 352.988312,501.464722 307.866241,510.652893   C301.869263,511.874054 295.654877,511.607391 289.294678,512.757812   C267.979095,513.000000 246.958206,513.000000 225.468658,513.000000   C220.774643,511.130920 216.208557,512.008179 211.822922,511.384857   C191.748581,508.531799 172.719543,502.219879 154.068298,494.483521   C118.150749,479.585175 88.144470,456.478119 62.442398,427.736145   C31.683491,393.339233 12.535281,352.988251 3.347078,307.866150   C2.125930,301.869202 2.392784,295.654846 1.242170,289.294678   C1.000000,267.979095 1.000000,246.958206 1.000000,225.468658   C2.869005,220.774628 1.991823,216.208542 2.615133,211.822906   C5.468198,191.748581 11.780037,172.719498 19.516464,154.068283   C34.414875,118.150780 57.521885,88.144493 86.263893,62.442390   C120.660812,31.683475 161.011826,12.535353 206.133865,3.347049   C212.130783,2.125883 218.345154,2.392778 224.705292,1.242168  z" />
  <path opacity="1.000000" stroke="none" d=" M166.648605,240.524384   C176.508804,204.833771 186.324539,169.552765 195.909653,134.209229   C196.929123,130.450073 198.417923,129.332626 202.290039,129.349899   C238.609909,129.512070 274.931763,129.572266 311.250214,129.294296   C316.037750,129.257660 316.979523,131.421829 317.977722,135.072754   C335.229828,198.171478 352.629547,261.230011 369.741699,324.366547   C371.055145,329.212616 373.069977,330.525055 377.805481,330.339508   C385.668579,330.031342 384.698273,329.173462 384.725128,337.091614   C384.772583,351.086548 384.630249,365.083191 384.814270,379.075836   C384.860809,382.613678 384.191956,383.973328 380.228058,383.957886   C340.409302,383.802612 300.589569,383.816223 260.770599,383.942688   C257.158997,383.954163 256.332672,382.781158 256.369171,379.393402   C256.530701,364.400391 256.514496,349.404053 256.382263,334.410461   C256.354187,331.226349 257.154419,329.896637 260.573547,330.153870   C264.549622,330.453033 268.567780,330.141266 272.563263,330.252594   C275.050262,330.321899 276.157227,329.949554 275.437866,326.927124   C273.897217,320.454193 272.728363,313.887482 271.583282,307.328461   C271.167999,304.949860 270.251007,303.991974 267.699066,304.016113   C255.037994,304.136047 242.375107,304.085144 229.712952,304.055054   C227.746399,304.050385 226.304398,304.128998 225.867218,306.724091   C224.734177,313.449677 223.343262,320.137024 221.857224,326.795441   C221.254593,329.495575 221.941757,330.383820 224.718277,330.269531   C229.042709,330.091553 233.382263,330.309357 237.710815,330.191162   C240.054153,330.127167 240.934509,330.952209 240.923416,333.354736   C240.850494,349.182190 240.821548,365.010529 240.930252,380.837585   C240.957870,384.859650 238.222290,383.834839 236.121902,383.837433   C205.632645,383.875366 175.143341,383.863373 144.654037,383.863098   C140.488831,383.863068 136.320541,383.765564 132.159653,383.899292   C129.820709,383.974457 128.944473,383.204529 128.956726,380.780243   C129.036804,364.952881 129.059372,349.124451 128.943604,333.297546   C128.921799,330.314911 130.455200,330.249054 132.682846,330.187042   C141.953156,329.928986 141.946121,329.877655 144.453430,320.804108   C151.812180,294.173981 159.175812,267.545227 166.648605,240.524384  z" fill="#FDFEFE" />
  <path fill="#06498A" opacity="1.000000" stroke="none" d=" M257.717834,240.207672   C259.489441,248.773193 261.108917,256.941223 262.893921,265.072906   C263.548370,268.054352 263.401764,269.646729 259.567932,269.502563   C252.079041,269.220947 244.570572,269.331207 237.073471,269.464233   C234.303101,269.513397 233.707657,268.681671 234.279968,265.972443   C238.375336,246.585434 242.310715,227.164673 246.366653,207.769226   C246.639786,206.463135 246.367233,204.424118 248.548645,204.385376   C251.009857,204.341629 250.703552,206.458740 251.025238,208.000793   C253.235641,218.597366 255.431046,229.197067 257.717834,240.207672  z" />
</svg>
