<svg xmlns="http://www.w3.org/2000/svg" xmlns:xlink="http://www.w3.org/1999/xlink" version="1.1" width="512px" height="512px" style="shape-rendering:geometricPrecision; text-rendering:geometricPrecision; image-rendering:optimizeQuality; fill-rule:evenodd; clip-rule:evenodd">
    <g><path fill="#fef45a" d="M 255.5,127.5 C 255.5,153.833 255.5,180.167 255.5,206.5C 206.656,207.66 164.656,224.993 129.5,258.5C 111.5,239.833 93.1667,221.5 74.5,203.5C 74.5,202.833 74.1667,202.5 73.5,202.5C 123.735,152.957 184.402,127.957 255.5,127.5 Z"/></g>
    <g><path fill="#f3ca06" d="M 255.5,127.5 C 326.598,127.957 387.265,152.957 437.5,202.5C 418.5,220.833 399.833,239.5 381.5,258.5C 356.756,234.62 327.422,218.787 293.5,211C 284.288,208.849 274.955,207.682 265.5,207.5C 262.375,206.521 259.042,206.187 255.5,206.5C 255.5,180.167 255.5,153.833 255.5,127.5 Z"/></g>
    <g><path fill="#fe465a" d="M 74.5,203.5 C 93.1667,221.5 111.5,239.833 129.5,258.5C 98.5834,290.872 81.5834,329.539 78.5,374.5C 77.5233,377.287 77.19,380.287 77.5,383.5C 55.1667,383.5 32.8333,383.5 10.5,383.5C 5.33138,382.331 1.66472,379.331 -0.5,374.5C -0.5,368.5 -0.5,362.5 -0.5,356.5C 5.60146,306.639 24.1015,261.972 55,222.5C 56.7038,220.627 58.5372,218.96 60.5,217.5C 62.5869,216.415 63.9202,214.749 64.5,212.5C 65.5,210.833 66.8333,209.5 68.5,208.5C 70.5,206.833 72.5,205.167 74.5,203.5 Z"/></g>
    <g><path fill="#5ccb81" d="M 437.5,202.5 C 479.28,245.399 503.947,296.733 511.5,356.5C 511.5,362.5 511.5,368.5 511.5,374.5C 509.261,379.234 505.594,382.401 500.5,384C 477.836,384.5 455.169,384.667 432.5,384.5C 432.961,349.719 423.794,317.719 405,288.5C 397.715,278.051 389.882,268.051 381.5,258.5C 399.833,239.5 418.5,220.833 437.5,202.5 Z"/></g>
    <g><path fill="#fba2ab" d="M 73.5,202.5 C 74.1667,202.5 74.5,202.833 74.5,203.5C 72.5,205.167 70.5,206.833 68.5,208.5C 69.4194,205.911 71.086,203.911 73.5,202.5 Z"/></g>
    <g><path fill="#e0f3fe" d="M 255.5,206.5 C 259.042,206.187 262.375,206.521 265.5,207.5C 262.167,207.5 258.833,207.5 255.5,207.5C 255.5,247.5 255.5,287.5 255.5,327.5C 229.919,328.574 212.086,340.907 202,364.5C 200.53,368.378 199.697,372.378 199.5,376.5C 198.527,378.948 198.194,381.615 198.5,384.5C 158.5,384.5 118.5,384.5 78.5,384.5C 78.5,381.167 78.5,377.833 78.5,374.5C 81.5834,329.539 98.5834,290.872 129.5,258.5C 164.656,224.993 206.656,207.66 255.5,206.5 Z"/></g>
    <g><path fill="#badbfe" d="M 265.5,207.5 C 274.955,207.682 284.288,208.849 293.5,211C 327.422,218.787 356.756,234.62 381.5,258.5C 389.882,268.051 397.715,278.051 405,288.5C 423.794,317.719 432.961,349.719 432.5,384.5C 392.5,384.5 352.5,384.5 312.5,384.5C 312.806,381.615 312.473,378.948 311.5,376.5C 309.563,363.293 303.896,351.959 294.5,342.5C 304.333,324.167 314.167,305.833 324,287.5C 325.442,275.7 320.276,269.366 308.5,268.5C 305.567,268.466 302.9,269.299 300.5,271C 297.386,274.06 294.886,277.56 293,281.5C 285.088,296.992 276.921,312.325 268.5,327.5C 264.297,327.726 259.964,327.726 255.5,327.5C 255.5,287.5 255.5,247.5 255.5,207.5C 258.833,207.5 262.167,207.5 265.5,207.5 Z"/></g>
    <g><path fill="#f48a97" d="M 64.5,212.5 C 63.9202,214.749 62.5869,216.415 60.5,217.5C 61.0798,215.251 62.4131,213.585 64.5,212.5 Z"/></g>
    <g><path fill="#394670" d="M 311.5,376.5 C 311.5,378.833 311.5,381.167 311.5,383.5C 292.833,383.5 274.167,383.5 255.5,383.5C 255.5,364.833 255.5,346.167 255.5,327.5C 259.964,327.726 264.297,327.726 268.5,327.5C 276.921,312.325 285.088,296.992 293,281.5C 294.886,277.56 297.386,274.06 300.5,271C 302.9,269.299 305.567,268.466 308.5,268.5C 320.276,269.366 325.442,275.7 324,287.5C 314.167,305.833 304.333,324.167 294.5,342.5C 303.896,351.959 309.563,363.293 311.5,376.5 Z"/></g>
    <g><path fill="#515e84" d="M 255.5,327.5 C 255.5,346.167 255.5,364.833 255.5,383.5C 236.833,383.5 218.167,383.5 199.5,383.5C 199.5,381.167 199.5,378.833 199.5,376.5C 199.697,372.378 200.53,368.378 202,364.5C 212.086,340.907 229.919,328.574 255.5,327.5 Z"/></g>
    <g><path fill="#f58091" d="M 78.5,374.5 C 78.5,377.833 78.5,381.167 78.5,384.5C 55.6605,384.831 32.9939,384.497 10.5,383.5C 32.8333,383.5 55.1667,383.5 77.5,383.5C 77.19,380.287 77.5233,377.287 78.5,374.5 Z"/></g>
    <g><path fill="#647498" d="M 199.5,376.5 C 199.5,378.833 199.5,381.167 199.5,383.5C 218.167,383.5 236.833,383.5 255.5,383.5C 274.167,383.5 292.833,383.5 311.5,383.5C 311.5,381.167 311.5,378.833 311.5,376.5C 312.473,378.948 312.806,381.615 312.5,384.5C 274.5,384.5 236.5,384.5 198.5,384.5C 198.194,381.615 198.527,378.948 199.5,376.5 Z"/></g>
</svg>
